<svg id="Layer_1" data-name="Layer 1" xmlns="http://www.w3.org/2000/svg" xmlns:xlink="http://www.w3.org/1999/xlink" viewBox="0 0 234 50"><defs><style>.cls-1{fill:#fff;}.cls-2{fill-opacity:0.6;}.cls-3{mask:url(#mask);}.cls-4{fill:red;}</style><mask id="mask" x="0" y="0" width="234" height="50" maskUnits="userSpaceOnUse"><g transform="translate(1 1)"><g id="path-1-inside-1_811_35355" data-name="path-1-inside-1 811 35355"><path class="cls-1" d="M232,0V29.86L215.35,48H0V25H12V23H0V0Z"/></g></g></mask></defs><title>butoon_layout</title><path class="cls-2" d="M232,0V29.86L215.35,48H0V25H12V23H0V0Z" transform="translate(1 1)"/><g class="cls-3"><path class="cls-4" d="M232,29.86l.74.67.26-.28v-.39ZM232,0h1V-1h-1ZM215.35,48v1h.44l.3-.32ZM0,48H-1v1H0ZM0,25V24H-1v1Zm12,0v1h1V25Zm0-2h1V22H12ZM0,23H-1v1H0ZM0,0V-1H-1V0ZM233,29.86V0h-2V29.86ZM216.09,48.68l16.65-18.15-1.48-1.35L214.61,47.32ZM0,49H215.35V47H0ZM-1,25V48H1V25Zm13-1H0v2H12Zm-1-1v2h2V23ZM0,24H12V22H0ZM-1,0V23H1V0ZM232-1H0V1H232Z" transform="translate(1 1)"/></g></svg>